# xmcd
#
# Track frame offsets:
#	150
#	30077
#	46195
#	61192
#	85747
#	108690
#	136642
#	153775
#	183697
#	202695
#	237525
#
# Disc length: 3672 seconds
#
# Revision: 2
# Processed by: cddbd v1.4PL0 Copyright (c) Steve Scherf et al.
# Submitted via: audiograbber 1.81.03
#
DISCID=7e0e560b
DTITLE=Grand Central - Central Heating Disc 2
DYEAR=1900
DGENRE=
TTITLE0=Aim - Original Stuntmaster
TTITLE1=Andy Votel - Hemlocka
TTITLE2=Funky Fresh Few - You Mean Fantastic
TTITLE3=Aim - Loopdreams
TTITLE4=Tony D - When We Get Together
TTITLE5=Mr Scruff and Mark Rae - Gotta Have Her
TTITLE6=Only Child - Lunagroove
TTITLE7=Rae and Christian - Baseball Fury
TTITLE8=Andy Votel - Spooky Driver
TTITLE9=Aim - Souldive (All City mix)
TTITLE10=Rae and Christian - Northern Sulphuric Soul
EXTD=
EXTT0=Aim\n
EXTT1=Andy Votel\n
EXTT2=Funky fresh few\n
EXTT3=aim\n
EXTT4=TonyD\n
EXTT5=Mr. Scruff and Mark Rae\n
EXTT6=Only Child\n
EXTT7=Rae and Christian\n
EXTT8=Andy Votel\n
EXTT9=Aim\n
EXTT10=Rae and Christian\n
PLAYORDER=
